<svg width="32" height="33" viewBox="0 0 32 33" fill="none" xmlns="http://www.w3.org/2000/svg">
<rect x="0.5" y="1" width="31" height="31" rx="15.5" stroke="white"/>
<g clip-path="url(#clip0_5_118)">
<path d="M21.6632 7.33675C21.5538 7.22739 21.4054 7.16595 21.2507 7.16595C21.0961 7.16595 20.9477 7.22739 20.8383 7.33675L18.9168 9.25825L23.2417 13.5831L25.1632 11.6627C25.2175 11.6086 25.2606 11.5442 25.29 11.4733C25.3194 11.4025 25.3345 11.3265 25.3345 11.2497C25.3345 11.173 25.3194 11.097 25.29 11.0262C25.2606 10.9553 25.2175 10.8909 25.1632 10.8367L21.6632 7.33675ZM22.4168 14.4079L18.092 10.0831L10.5087 17.6664H10.7502C10.9049 17.6664 11.0532 17.7279 11.1626 17.8373C11.272 17.9467 11.3335 18.095 11.3335 18.2497V18.8331H11.9168C12.0715 18.8331 12.2199 18.8945 12.3293 19.0039C12.4387 19.1133 12.5002 19.2617 12.5002 19.4164V19.9997H13.0835C13.2382 19.9997 13.3866 20.0612 13.496 20.1706C13.6054 20.28 13.6668 20.4284 13.6668 20.5831V21.1664H14.2502C14.4049 21.1664 14.5532 21.2279 14.6626 21.3373C14.772 21.4467 14.8335 21.595 14.8335 21.7497V21.9912L22.4168 14.4079ZM13.7042 23.1206C13.6796 23.0553 13.667 22.9862 13.6668 22.9164V22.3331H13.0835C12.9288 22.3331 12.7804 22.2716 12.671 22.1622C12.5616 22.0528 12.5002 21.9045 12.5002 21.7497V21.1664H11.9168C11.7621 21.1664 11.6137 21.105 11.5043 20.9956C11.395 20.8862 11.3335 20.7378 11.3335 20.5831V19.9997H10.7502C10.5955 19.9997 10.4471 19.9383 10.3377 19.8289C10.2283 19.7195 10.1668 19.5711 10.1668 19.4164V18.8331H9.58349C9.51375 18.833 9.4446 18.8203 9.37933 18.7957L9.17049 19.0034C9.1149 19.0594 9.07124 19.1261 9.04216 19.1994L6.70883 25.0327C6.66639 25.1388 6.65601 25.2549 6.67895 25.3667C6.7019 25.4786 6.75717 25.5813 6.83791 25.662C6.91865 25.7427 7.02131 25.798 7.13317 25.821C7.24502 25.8439 7.36115 25.8335 7.46716 25.7911L13.3005 23.4577C13.3738 23.4287 13.4405 23.385 13.4965 23.3294L13.7042 23.1217V23.1206Z" fill="white"/>
</g>
<defs>
<clipPath id="clip0_5_118">
<rect width="18.6667" height="18.6667" fill="white" transform="translate(6.66669 7.16666)"/>
</clipPath>
</defs>
</svg>
