<svg width="39" height="39" viewBox="0 0 39 39" fill="none" xmlns="http://www.w3.org/2000/svg">
<g clip-path="url(#clip0_8_40)">
<path fill-rule="evenodd" clip-rule="evenodd" d="M27.0458 1.57093C28.9624 -0.249924 31.9812 -0.211229 33.8505 1.65816L37.342 5.14958C39.2113 7.01895 39.2501 10.0377 37.429 11.9544L36.4221 13.0143L16.7509 34.9389C16.5198 35.1965 16.1899 35.3438 15.8438 35.3438H8.53127C8.33016 35.3438 8.13416 35.294 7.95971 35.2014L6.95558 36.2057C6.72701 36.434 6.41701 36.5625 6.09377 36.5625H1.21879C0.725846 36.5625 0.281446 36.2656 0.0928073 35.8103C-0.0958318 35.3547 0.00843917 34.8307 0.356999 34.4821L3.79862 31.0403C3.706 30.8658 3.65627 30.6698 3.65627 30.4688V23.1563C3.65627 22.8101 3.80348 22.4803 4.06112 22.2491L25.9857 2.5779L27.0458 1.57093ZM26.7672 5.15161L6.64655 23.2042L15.7958 32.3534L33.8483 12.233L26.7672 5.15161ZM35.5041 10.4416L35.6618 10.2755C36.5725 9.3172 36.553 7.80785 35.6182 6.87314L32.127 3.38174C31.1922 2.44703 29.6829 2.42769 28.7245 3.33811L28.5585 3.49584L35.5041 10.4416ZM12.9015 32.9062L6.09377 26.0986V29.9639L9.03611 32.9062H12.9015Z" fill="black"/>
</g>
<defs>
<clipPath id="clip0_8_40">
<rect width="39" height="39" fill="white"/>
</clipPath>
</defs>
</svg>
