<svg width="47" height="47" viewBox="0 0 47 47" fill="none" xmlns="http://www.w3.org/2000/svg">
<g clip-path="url(#clip0_8_34)">
<path d="M23.5 14.6875C25.9335 14.6875 27.9062 12.7148 27.9062 10.2812C27.9062 7.84774 25.9335 5.875 23.5 5.875C21.0665 5.875 19.0938 7.84774 19.0938 10.2812C19.0938 12.7148 21.0665 14.6875 23.5 14.6875Z" fill="black"/>
<path d="M35.25 23.5C37.6834 23.5 39.6562 21.5273 39.6562 19.0938C39.6562 16.6602 37.6834 14.6875 35.25 14.6875C32.8166 14.6875 30.8438 16.6602 30.8438 19.0938C30.8438 21.5273 32.8166 23.5 35.25 23.5Z" fill="black"/>
<path d="M16.1562 20.5625C16.1562 22.996 14.1835 24.9688 11.75 24.9688C9.31649 24.9688 7.34375 22.996 7.34375 20.5625C7.34375 18.129 9.31649 16.1562 11.75 16.1562C14.1835 16.1562 16.1562 18.129 16.1562 20.5625Z" fill="black"/>
<path d="M17.625 38.1875C20.0585 38.1875 22.0312 36.2147 22.0312 33.7812C22.0312 31.3478 20.0585 29.375 17.625 29.375C15.1915 29.375 13.2188 31.3478 13.2188 33.7812C13.2188 36.2147 15.1915 38.1875 17.625 38.1875Z" fill="black"/>
<path d="M47 23.5C47 32.7549 41.5174 31.0934 36.5228 29.5797C33.5451 28.6775 30.7406 27.8277 29.375 29.375C27.6044 31.381 27.98 34.7171 28.3439 37.9507C28.8651 42.5808 29.3625 47 23.5 47C10.5213 47 0 36.4788 0 23.5C0 10.5213 10.5213 0 23.5 0C36.4788 0 47 10.5213 47 23.5ZM23.5 44.0625C25.295 44.0625 25.42 43.559 25.4235 43.5449C25.6528 43.1169 25.7878 42.181 25.6289 40.2593C25.588 39.7649 25.5216 39.1689 25.4496 38.5215C25.2981 37.1591 25.1213 35.5699 25.1033 34.2266C25.0755 32.1524 25.3485 29.4981 27.1726 27.4312C28.2544 26.2055 29.6541 25.7322 30.9075 25.6144C32.0954 25.5028 33.2948 25.6917 34.3144 25.9204C35.3226 26.1466 36.3777 26.4664 37.3262 26.7539L37.4102 26.7794C38.4249 27.0868 39.3405 27.362 40.2082 27.5589C42.1267 27.9939 42.8637 27.8031 43.1204 27.6303C43.2324 27.555 44.0625 26.9109 44.0625 23.5C44.0625 12.1437 34.8564 2.9375 23.5 2.9375C12.1437 2.9375 2.9375 12.1437 2.9375 23.5C2.9375 34.8564 12.1437 44.0625 23.5 44.0625Z" fill="black"/>
</g>
<defs>
<clipPath id="clip0_8_34">
<rect width="47" height="47" fill="white"/>
</clipPath>
</defs>
</svg>
