<svg width="47" height="47" viewBox="0 0 47 47" fill="none" xmlns="http://www.w3.org/2000/svg">
<path d="M25.2248 7.67564C27.5569 5.27479 31.3379 5.27479 33.6699 7.67564L45.2509 19.5984C47.583 21.9993 47.583 25.8919 45.2509 28.2928L28.829 45.1993C27.7091 46.3523 26.1902 47 24.6065 47H16.3736C14.7898 47 13.2709 46.3523 12.151 45.1993L4.68653 37.5145C2.35449 35.1137 2.35449 31.2211 4.68653 28.8202L25.2248 7.67564ZM27.1962 42.5333L11.3927 26.2633L6.79781 30.9938C5.6318 32.1941 5.6318 34.1405 6.79781 35.3409L14.2623 43.0257C14.8222 43.6024 15.5817 43.9261 16.3736 43.9261H24.6065C25.3983 43.9261 26.1578 43.6024 26.7177 43.0257L27.1962 42.5333Z" fill="black"/>
</svg>
